<svg width="90" height="90" viewBox="0 0 90 90" fill="none" xmlns="http://www.w3.org/2000/svg">
<path d="M57.6566 44.9923L87.3393 15.4116C88.178 14.5733 88.8433 13.578 89.2972 12.4827C89.751 11.3874 89.9846 10.2135 89.9846 9.0279C89.9846 7.84234 89.751 6.66839 89.2972 5.57307C88.8433 4.47776 88.178 3.48253 87.3393 2.64421C86.5007 1.80589 85.5051 1.1409 84.4093 0.68721C83.3135 0.233516 82.1391 0 80.9531 0C79.767 0 78.5926 0.233516 77.4968 0.68721C76.4011 1.1409 75.4054 1.80589 74.5668 2.64421L38.5876 38.6086C37.7446 39.4445 37.0754 40.4389 36.6187 41.5346C36.1621 42.6302 35.927 43.8054 35.927 44.9923C35.927 46.1793 36.1621 47.3545 36.6187 48.4501C37.0754 49.5458 37.7446 50.5402 38.5876 51.376L74.5668 87.3404C75.4029 88.1832 76.3978 88.8521 77.4939 89.3085C78.59 89.765 79.7656 90 80.9531 90C82.1405 90 83.3161 89.765 84.4122 89.3085C85.5083 88.8521 86.5032 88.1832 87.3393 87.3404C88.1824 86.5046 88.8516 85.5102 89.3082 84.4145C89.7649 83.3189 90 82.1437 90 80.9568C90 79.7698 89.7649 78.5946 89.3082 77.499C88.8516 76.4033 88.1824 75.4089 87.3393 74.5731L57.6566 44.9923ZM8.99478 0.0367893C6.60922 0.0367893 4.32136 0.984066 2.63451 2.67023C0.947664 4.35639 0 6.64331 0 9.0279V80.9568C0 83.3413 0.947664 85.6283 2.63451 87.3144C4.32136 89.0006 6.60922 89.9479 8.99478 89.9479C11.3803 89.9479 13.6682 89.0006 15.3551 87.3144C17.0419 85.6283 17.9896 83.3413 17.9896 80.9568V9.0279C17.9896 6.64331 17.0419 4.35639 15.3551 2.67023C13.6682 0.984066 11.3803 0.0367893 8.99478 0.0367893Z" fill="#3A3A3A"/>
</svg>
