<svg width="90" height="90" viewBox="0 0 90 90" fill="none" xmlns="http://www.w3.org/2000/svg">
<path d="M77.2447 63.9055C74.7387 63.9033 72.2883 64.6455 70.2038 66.038L48.5453 46.5228V25.1337C51.5512 24.3567 54.171 22.5088 55.9134 19.9365C57.6558 17.3641 58.4013 14.2439 58.0101 11.1606C57.6189 8.07732 56.1179 5.24272 53.7884 3.18813C51.459 1.13353 48.461 0 45.3564 0C42.2519 0 39.2539 1.13353 36.9244 3.18813C34.595 5.24272 33.094 8.07732 32.7028 11.1606C32.3116 14.2439 33.0571 17.3641 34.7995 19.9365C36.5419 22.5088 39.1616 24.3567 42.1676 25.1337V46.5037L20.4262 65.9773C17.7707 64.1908 14.5544 63.4379 11.383 63.8603C8.21158 64.2828 5.30386 65.8514 3.20739 68.2709C1.11093 70.6904 -0.0295976 73.7938 0.000584035 76.9966C0.0307656 80.1995 1.22957 83.2807 3.37126 85.6602C5.51295 88.0397 8.44972 89.5532 11.6285 89.9156C14.8074 90.2781 18.0089 89.4646 20.6302 87.6282C23.2515 85.7918 25.1118 83.0594 25.8607 79.9454C26.6095 76.8314 26.1953 73.5508 24.696 70.7212L45.3564 52.234L65.9818 70.8138C65.0167 72.6174 64.5045 74.629 64.4894 76.6751C64.4894 79.2007 65.2375 81.6695 66.639 83.7695C68.0406 85.8694 70.0327 87.5062 72.3635 88.4727C74.6942 89.4392 77.2588 89.692 79.7331 89.1993C82.2074 88.7066 84.4802 87.4904 86.264 85.7045C88.0479 83.9187 89.2627 81.6434 89.7549 79.1663C90.2471 76.6892 89.9945 74.1217 89.0291 71.7884C88.0636 69.455 86.4288 67.4607 84.3312 66.0575C82.2336 64.6544 79.7675 63.9055 77.2447 63.9055Z" fill="#3A3A3A"/>
</svg>
