<svg width="90" height="91" viewBox="0 0 90 91" fill="none" xmlns="http://www.w3.org/2000/svg">
<path d="M85.4076 5.57461C79.2842 -0.548316 69.3577 -0.548296 63.235 5.57461L33.8519 34.9579C33.4724 35.3374 33.1865 35.8 33.0168 36.3092L24.3748 62.2357C23.9607 63.4778 24.284 64.8475 25.2099 65.7732C26.1357 66.6989 27.5052 67.0225 28.7473 66.6084L54.6734 57.9661C55.1825 57.7964 55.6452 57.5105 56.0248 57.131L85.4076 27.7477C91.5303 21.6248 91.5303 11.6975 85.4076 5.57461Z" fill="#3A3A3A"/>
<path d="M75.9584 46.9726C76.0193 47.8071 76.0497 48.65 76.0497 49.5C76.0497 68.5915 60.5729 84.0686 41.4817 84.0686C22.3903 84.0686 6.91361 68.5915 6.91361 49.5C6.91361 30.4082 22.3903 14.9313 41.4817 14.9313C42.3314 14.9313 43.174 14.962 44.0084 15.0222L50.1136 8.91699C47.3292 8.32759 44.4416 8.01758 41.4817 8.01758C18.572 8.01758 0 26.5899 0 49.5C0 72.41 18.572 90.9823 41.4817 90.9823C64.3913 90.9823 82.9633 72.41 82.9633 49.5C82.9633 46.5398 82.6536 43.652 82.0638 40.8673L75.9584 46.9726Z" fill="#3A3A3A"/>
</svg>
