<svg width="697" height="502" viewBox="0 0 697 502" fill="none" xmlns="http://www.w3.org/2000/svg">
<g filter="url(#filter0_d_4579_1859)">
<mask id="mask0_4579_1859" style="mask-type:alpha" maskUnits="userSpaceOnUse" x="0" y="0" width="697" height="502">
<path d="M0 0H665.849C683.053 0 697 13.9467 697 31.1508V470.849C697 488.053 683.053 502 665.849 502H31.1508C13.9467 502 0 488.053 0 470.849V0Z" fill="#F5F5F5"/>
</mask>
<g mask="url(#mask0_4579_1859)">
<path d="M0 31.15C0 13.9463 13.9463 0 31.15 0H665.849C683.053 0 697 13.9467 697 31.1508V470.849C697 488.053 683.053 502 665.849 502H31.1508C13.9467 502 0 488.053 0 470.849V31.15Z" fill="#111111"/>
<g opacity="0.3">
<g filter="url(#filter1_f_4579_1859)">
<ellipse cx="506.201" cy="147.647" rx="354.341" ry="413.412" transform="rotate(-180 506.201 147.647)" fill="#49B6E9"/>
</g>
<g filter="url(#filter2_f_4579_1859)">
<ellipse cx="183.985" cy="513.357" rx="324.163" ry="379.339" transform="rotate(-180 183.985 513.357)" fill="#5077A6"/>
</g>
</g>
</g>
</g>
<defs>
<filter id="filter0_d_4579_1859" x="0" y="0" width="697" height="502" filterUnits="userSpaceOnUse" color-interpolation-filters="sRGB">
<feFlood flood-opacity="0" result="BackgroundImageFix"/>
<feColorMatrix in="SourceAlpha" type="matrix" values="0 0 0 0 0 0 0 0 0 0 0 0 0 0 0 0 0 0 127 0" result="hardAlpha"/>
<feOffset/>
<feComposite in2="hardAlpha" operator="out"/>
<feColorMatrix type="matrix" values="0 0 0 0 0 0 0 0 0 0 0 0 0 0 0 0 0 0 0.25 0"/>
<feBlend mode="normal" in2="BackgroundImageFix" result="effect1_dropShadow_4579_1859"/>
<feBlend mode="normal" in="SourceGraphic" in2="effect1_dropShadow_4579_1859" result="shape"/>
</filter>
<filter id="filter1_f_4579_1859" x="-101.24" y="-518.865" width="1214.88" height="1333.02" filterUnits="userSpaceOnUse" color-interpolation-filters="sRGB">
<feFlood flood-opacity="0" result="BackgroundImageFix"/>
<feBlend mode="normal" in="SourceGraphic" in2="BackgroundImageFix" result="shape"/>
<feGaussianBlur stdDeviation="126.55" result="effect1_foregroundBlur_4579_1859"/>
</filter>
<filter id="filter2_f_4579_1859" x="-393.279" y="-119.083" width="1154.53" height="1264.88" filterUnits="userSpaceOnUse" color-interpolation-filters="sRGB">
<feFlood flood-opacity="0" result="BackgroundImageFix"/>
<feBlend mode="normal" in="SourceGraphic" in2="BackgroundImageFix" result="shape"/>
<feGaussianBlur stdDeviation="126.55" result="effect1_foregroundBlur_4579_1859"/>
</filter>
</defs>
</svg>
